<mxfile host="app.diagrams.net" modified="2024-06-20T23:55:15.948Z" agent="Mozilla/5.0 (Windows NT 10.0; Win64; x64) AppleWebKit/537.36 (KHTML, like Gecko) Chrome/126.0.0.0 Safari/537.36" etag="xnU_FDSPHajWbk8k06YQ" version="24.5.5" type="github">
  <diagram name="Página-1" id="uo4vIWMoXTekdhAcwwu6">
    <mxGraphModel dx="926" dy="448" grid="1" gridSize="10" guides="1" tooltips="1" connect="1" arrows="1" fold="1" page="1" pageScale="1" pageWidth="827" pageHeight="1169" math="0" shadow="0">
      <root>
        <mxCell id="0" />
        <mxCell id="1" parent="0" />
        <mxCell id="NG3DBzSu40vpIyD9UtTB-2" style="edgeStyle=orthogonalEdgeStyle;rounded=0;orthogonalLoop=1;jettySize=auto;html=1;exitX=0.5;exitY=1;exitDx=0;exitDy=0;entryX=0.5;entryY=0;entryDx=0;entryDy=0;" edge="1" parent="1" source="NG3DBzSu40vpIyD9UtTB-3" target="NG3DBzSu40vpIyD9UtTB-5">
          <mxGeometry relative="1" as="geometry" />
        </mxCell>
        <mxCell id="NG3DBzSu40vpIyD9UtTB-3" value="INICIO" style="ellipse;whiteSpace=wrap;html=1;" vertex="1" parent="1">
          <mxGeometry x="207.5" y="560" width="70" height="50" as="geometry" />
        </mxCell>
        <mxCell id="NG3DBzSu40vpIyD9UtTB-4" style="edgeStyle=orthogonalEdgeStyle;rounded=0;orthogonalLoop=1;jettySize=auto;html=1;exitX=0.5;exitY=1;exitDx=0;exitDy=0;entryX=0.5;entryY=0;entryDx=0;entryDy=0;" edge="1" parent="1" source="NG3DBzSu40vpIyD9UtTB-5">
          <mxGeometry relative="1" as="geometry">
            <mxPoint x="242.5" y="770" as="targetPoint" />
          </mxGeometry>
        </mxCell>
        <mxCell id="NG3DBzSu40vpIyD9UtTB-5" value="Especificações da UART" style="shape=parallelogram;perimeter=parallelogramPerimeter;whiteSpace=wrap;html=1;fixedSize=1;" vertex="1" parent="1">
          <mxGeometry x="160" y="660" width="165" height="60" as="geometry" />
        </mxCell>
        <mxCell id="NG3DBzSu40vpIyD9UtTB-6" value="&lt;h1 style=&quot;margin-top: 0px;&quot;&gt;Especificações&lt;/h1&gt;&lt;p&gt;Baund Rate -&amp;gt; 9600 bps&lt;/p&gt;&lt;p&gt;&lt;span style=&quot;background-color: initial;&quot;&gt;9 bits (1 start bit, 8 bits de dados e 1 stop bit)&lt;/span&gt;&lt;/p&gt;&lt;p&gt;&lt;span style=&quot;background-color: initial;&quot;&gt;&lt;br&gt;&lt;/span&gt;&lt;/p&gt;&lt;p&gt;&lt;br&gt;&lt;/p&gt;" style="text;html=1;whiteSpace=wrap;overflow=hidden;rounded=0;" vertex="1" parent="1">
          <mxGeometry x="347.5" y="635" width="190" height="110" as="geometry" />
        </mxCell>
        <mxCell id="NG3DBzSu40vpIyD9UtTB-7" style="edgeStyle=orthogonalEdgeStyle;rounded=0;orthogonalLoop=1;jettySize=auto;html=1;entryX=0.5;entryY=0;entryDx=0;entryDy=0;exitX=1;exitY=0.5;exitDx=0;exitDy=0;" edge="1" parent="1" source="NG3DBzSu40vpIyD9UtTB-9" target="NG3DBzSu40vpIyD9UtTB-11">
          <mxGeometry relative="1" as="geometry">
            <mxPoint x="302.5" y="810" as="sourcePoint" />
          </mxGeometry>
        </mxCell>
        <mxCell id="NG3DBzSu40vpIyD9UtTB-8" style="edgeStyle=orthogonalEdgeStyle;rounded=0;orthogonalLoop=1;jettySize=auto;html=1;exitX=0.5;exitY=1;exitDx=0;exitDy=0;entryX=0.5;entryY=0;entryDx=0;entryDy=0;" edge="1" parent="1" source="NG3DBzSu40vpIyD9UtTB-9" target="NG3DBzSu40vpIyD9UtTB-21">
          <mxGeometry relative="1" as="geometry" />
        </mxCell>
        <mxCell id="NG3DBzSu40vpIyD9UtTB-9" value="Data[0] = 0?" style="rhombus;whiteSpace=wrap;html=1;" vertex="1" parent="1">
          <mxGeometry x="197.5" y="770" width="90" height="80" as="geometry" />
        </mxCell>
        <mxCell id="NG3DBzSu40vpIyD9UtTB-10" style="edgeStyle=orthogonalEdgeStyle;rounded=0;orthogonalLoop=1;jettySize=auto;html=1;exitX=0.5;exitY=1;exitDx=0;exitDy=0;entryX=0.5;entryY=0;entryDx=0;entryDy=0;" edge="1" parent="1" source="NG3DBzSu40vpIyD9UtTB-11" target="NG3DBzSu40vpIyD9UtTB-14">
          <mxGeometry relative="1" as="geometry" />
        </mxCell>
        <mxCell id="NG3DBzSu40vpIyD9UtTB-11" value="Buffer &amp;lt;- Data[1..7]" style="rounded=0;whiteSpace=wrap;html=1;" vertex="1" parent="1">
          <mxGeometry x="317.5" y="890" width="130" height="50" as="geometry" />
        </mxCell>
        <mxCell id="NG3DBzSu40vpIyD9UtTB-12" style="edgeStyle=orthogonalEdgeStyle;rounded=0;orthogonalLoop=1;jettySize=auto;html=1;exitX=1;exitY=0.5;exitDx=0;exitDy=0;entryX=0;entryY=0.5;entryDx=0;entryDy=0;" edge="1" parent="1" source="NG3DBzSu40vpIyD9UtTB-14" target="NG3DBzSu40vpIyD9UtTB-17">
          <mxGeometry relative="1" as="geometry" />
        </mxCell>
        <mxCell id="NG3DBzSu40vpIyD9UtTB-13" style="edgeStyle=orthogonalEdgeStyle;rounded=0;orthogonalLoop=1;jettySize=auto;html=1;exitX=0;exitY=0.5;exitDx=0;exitDy=0;entryX=1;entryY=0.5;entryDx=0;entryDy=0;" edge="1" parent="1" source="NG3DBzSu40vpIyD9UtTB-14" target="NG3DBzSu40vpIyD9UtTB-21">
          <mxGeometry relative="1" as="geometry">
            <mxPoint x="305" y="1025" as="targetPoint" />
          </mxGeometry>
        </mxCell>
        <mxCell id="NG3DBzSu40vpIyD9UtTB-14" value="Data[8] = 1?" style="rhombus;whiteSpace=wrap;html=1;" vertex="1" parent="1">
          <mxGeometry x="337.5" y="985" width="90" height="80" as="geometry" />
        </mxCell>
        <mxCell id="NG3DBzSu40vpIyD9UtTB-15" value="Sim" style="text;html=1;align=center;verticalAlign=middle;whiteSpace=wrap;rounded=0;" vertex="1" parent="1">
          <mxGeometry x="287.5" y="780" width="60" height="30" as="geometry" />
        </mxCell>
        <mxCell id="NG3DBzSu40vpIyD9UtTB-16" style="edgeStyle=orthogonalEdgeStyle;rounded=0;orthogonalLoop=1;jettySize=auto;html=1;exitX=0.5;exitY=0;exitDx=0;exitDy=0;entryX=0.5;entryY=1;entryDx=0;entryDy=0;" edge="1" parent="1" source="NG3DBzSu40vpIyD9UtTB-17" target="NG3DBzSu40vpIyD9UtTB-19">
          <mxGeometry relative="1" as="geometry" />
        </mxCell>
        <mxCell id="NG3DBzSu40vpIyD9UtTB-17" value="Buffer pronto para ser enviado/analisado" style="rounded=0;whiteSpace=wrap;html=1;" vertex="1" parent="1">
          <mxGeometry x="482.5" y="1000" width="145" height="50" as="geometry" />
        </mxCell>
        <mxCell id="NG3DBzSu40vpIyD9UtTB-18" value="Sim" style="text;html=1;align=center;verticalAlign=middle;whiteSpace=wrap;rounded=0;" vertex="1" parent="1">
          <mxGeometry x="422.5" y="995" width="60" height="30" as="geometry" />
        </mxCell>
        <mxCell id="NG3DBzSu40vpIyD9UtTB-19" value="FIM" style="ellipse;whiteSpace=wrap;html=1;" vertex="1" parent="1">
          <mxGeometry x="520" y="920" width="70" height="40" as="geometry" />
        </mxCell>
        <mxCell id="NG3DBzSu40vpIyD9UtTB-20" style="edgeStyle=orthogonalEdgeStyle;rounded=0;orthogonalLoop=1;jettySize=auto;html=1;exitX=0;exitY=0.5;exitDx=0;exitDy=0;" edge="1" parent="1" source="NG3DBzSu40vpIyD9UtTB-21">
          <mxGeometry relative="1" as="geometry">
            <mxPoint x="242.5" y="750" as="targetPoint" />
            <Array as="points">
              <mxPoint x="175.5" y="1025" />
              <mxPoint x="175.5" y="750" />
            </Array>
          </mxGeometry>
        </mxCell>
        <mxCell id="NG3DBzSu40vpIyD9UtTB-21" value="Informa Erro de Comunicação" style="shape=document;whiteSpace=wrap;html=1;boundedLbl=1;" vertex="1" parent="1">
          <mxGeometry x="195" y="1000" width="95" height="50" as="geometry" />
        </mxCell>
        <mxCell id="NG3DBzSu40vpIyD9UtTB-22" value="Não" style="text;html=1;align=center;verticalAlign=middle;whiteSpace=wrap;rounded=0;" vertex="1" parent="1">
          <mxGeometry x="290" y="995" width="60" height="30" as="geometry" />
        </mxCell>
        <mxCell id="NG3DBzSu40vpIyD9UtTB-23" value="Não" style="text;html=1;align=center;verticalAlign=middle;whiteSpace=wrap;rounded=0;" vertex="1" parent="1">
          <mxGeometry x="230" y="890" width="60" height="30" as="geometry" />
        </mxCell>
        <mxCell id="NG3DBzSu40vpIyD9UtTB-26" value="raw_press = ((readout[0] &lt;&lt; 16) | (readout[1] &lt;&lt; 8) | readout[2]) &gt;&gt; 4&#xa;        # temperature(0xFA): ((msb &lt;&lt; 16) | (lsb &lt;&lt; 8) | xlsb) &gt;&gt; 4&#xa;        raw_temp = ((readout[3] &lt;&lt; 16) | (readout[4] &lt;&lt; 8) | readout[5]) &gt;&gt; 4&#xa;        # humidity(0xFD): (msb &lt;&lt; 8) | lsb&#xa;        raw_hum = (readout[6] &lt;&lt; 8) | readout[7]" style="text;whiteSpace=wrap;" vertex="1" parent="1">
          <mxGeometry x="500" y="570" width="420" height="100" as="geometry" />
        </mxCell>
      </root>
    </mxGraphModel>
  </diagram>
</mxfile>
